# xmcd CD database file
#
# Track frame offsets:
#	150
#	12948
#	26089
#	40868
#	52904
#	66872
#	80107
#	93224
#	106753
#	119447
#	132337
#	146356
#	164671
#	180451
#	201529
#	232837
#	256499
#	271926
#	297179
#
# Disc length: 4317 seconds
#
# Revision: 4
# Processed by: cddbd v1.5PL3 Copyright (c) Steve Scherf et al.
# Submitted via: CDex 1.51
#
DISCID=0c10db13
DTITLE=Stevie Wonder - The Definitive Collection - Disk 2 of 2
DYEAR=2002
DGENRE=Pop
TTITLE0=For Once In My Life
TTITLE1=Uptight (Everything's Alright)
TTITLE2=We Can Work It Out
TTITLE3=Signed, Sealed, Delivered I'm Yours
TTITLE4=Yester-Me, Yester-You, Yesterday
TTITLE5=I'm Wondering
TTITLE6=My Cherie Armour
TTITLE7=You Are The Sunshine Of My Life
TTITLE8=I Don't Know Why (I Love You)
TTITLE9=A Place In The Sun
TTITLE10=Blowin' In The Wind
TTITLE11=Send One Your Love
TTITLE12=Pastime Paradise
TTITLE13=I Ain't Gonna Stand For It
TTITLE14=Fingertips (Parts 1 and 2)
TTITLE15=Boogie On Reggae Woman
TTITLE16=You Haven't Done Nothin'
TTITLE17=He's Misstra Know It All
TTITLE18=Happy Birthday
EXTD=YEAR: 2002
EXTT0=
EXTT1=
EXTT2=
EXTT3=
EXTT4=
EXTT5=
EXTT6=
EXTT7=
EXTT8=
EXTT9=
EXTT10=
EXTT11=
EXTT12=
EXTT13=
EXTT14=
EXTT15=
EXTT16=
EXTT17=
EXTT18=
PLAYORDER=
